# xmcd
#
# Track frame offsets: 
#        150
#        38143
#        94077
#        123707
#        151878
#        170662
#        195482
#        225259
#        252941
#        282092
#        300523
#
# Disc length: 4308 seconds
#
# Revision: 0
# Processed by: cddbd v1.5.2PL0 Copyright (c) Steve Scherf et al.
# Submitted via: ExactAudioCopy v0.99pb5
#
DISCID=8610d20b
DTITLE=The Notting Hillbillies - Ronnie Scotts Club, London, 1 August 
DTITLE=1998 - CD2
DYEAR=1998
DGENRE=Country
TTITLE0=Blues stay away from me
TTITLE1=Calling Elvis
TTITLE2=Mississippi blues
TTITLE3=Mystery train
TTITLE4=Bewildered
TTITLE5=Setting me up
TTITLE6=Feel like going home
TTITLE7=Wild theme (Local Hero)
TTITLE8=His latest flame
TTITLE9=Long highway
TTITLE10=The next time I'm in town
EXTD=
EXTT0=
EXTT1=
EXTT2=
EXTT3=
EXTT4=
EXTT5=
EXTT6=
EXTT7=
EXTT8=
EXTT9=
EXTT10=
PLAYORDER=
